<svg width="116" height="19" viewBox="0 0 116 19" fill="none" xmlns="http://www.w3.org/2000/svg"><path d="M63.9846 18.5827L59.7033 12.5101C59.7033 12.5101 59.6768 12.4837 59.6504 12.4837C61.8175 12.0828 63.2093 9.56776 63.2093 6.62402C63.2093 4.10896 62.4327 2.23694 61.3637 1.4074C60.3199 0.497136 58.8487 0.256348 55.5848 0.256348H39.7735C39.6928 0.256348 39.6399 0.309238 39.6399 0.389964V18.6092C39.6399 18.6899 39.6928 18.7428 39.7735 18.7428H45.1237C45.2045 18.7428 45.2574 18.6885 45.2574 18.6092V14.2207C45.2574 14.14 45.3103 14.0871 45.391 14.0871H53.9786C54.0315 14.0871 54.1123 14.1135 54.1387 14.1678L57.2954 18.6621C57.3218 18.7149 57.4026 18.7428 57.4555 18.7428H63.9039C64.011 18.7428 64.0375 18.662 63.9846 18.5827ZM54.0329 9.56637H45.391C45.3103 9.56637 45.2574 9.51348 45.2574 9.43275V4.91206C45.2574 4.83133 45.3103 4.77844 45.391 4.77844H54.2194C55.9314 4.77844 56.413 4.88561 56.8152 5.28646C57.1896 5.71376 57.2968 6.19533 57.2968 7.39927C57.2968 9.21841 56.7345 9.56637 54.0329 9.56637Z" fill="currentColor"/> <path d="M115.549 5.27228C115.175 2.32993 113.783 0.857364 110.894 0.322897C109.637 0.108554 107.978 0.0556641 102.654 0.0556641C97.7576 0.0556641 96.0456 0.162836 94.5202 0.591523C92.4338 1.23316 91.337 2.2506 90.8012 4.22979C90.4796 5.48663 90.4268 6.23683 90.4268 9.39352C90.4268 13.4062 90.5868 14.798 91.3092 16.1356C92.0051 17.5274 93.2091 18.3027 95.269 18.6507C96.3657 18.865 98.6136 18.9443 103.001 18.9443C104.82 18.9443 107.308 18.9179 108.298 18.8636C111 18.7564 112.551 18.3291 113.648 17.3924C115.253 16.0813 115.708 14.2622 115.708 9.79437C115.708 7.54655 115.654 6.04893 115.548 5.27228M109.423 13.3784C108.807 14.2608 107.818 14.4222 102.948 14.4222C98.7207 14.4222 97.784 14.3151 97.0352 13.6999C96.3393 13.1376 96.125 12.148 96.125 9.41858C96.125 6.68918 96.3393 5.83319 97.0881 5.218C97.8105 4.73642 98.9615 4.57636 103.081 4.57636C110.011 4.57636 110.117 4.63064 110.117 9.28496C110.117 11.7457 109.957 12.6824 109.421 13.3784" fill="currentColor" class=""/> <path d="M82.0281 14.0482C81.2529 14.3697 80.6363 14.3961 76.4635 14.3961C71.059 14.3961 70.6317 14.0746 70.6317 9.63465C70.6317 6.63801 70.7918 5.8892 71.407 5.24617C72.1029 4.68387 72.9589 4.55025 77.5603 4.55025C82.4568 4.55025 82.8841 4.73815 82.9648 6.74379H88.3693V6.1286C88.3693 3.3992 87.6734 1.76796 86.2022 1.01915C84.5975 0.27034 83.072 0.108887 76.1963 0.108887C70.9797 0.108887 69.2134 0.349675 67.5544 1.31283C65.6016 2.43604 65.0393 4.20229 65.0393 9.09879C65.0393 14.584 65.5738 16.5368 67.3929 17.6864C68.9184 18.6496 70.6303 18.8904 75.9541 18.8904C79.6467 18.8904 81.8667 18.8639 82.9899 18.7568C85.9058 18.5689 87.4048 17.8201 88.1272 16.2153C88.5016 15.3857 88.5823 14.4769 88.6087 11.7739H83.1513C83.1513 13.1379 82.8298 13.7002 82.0281 14.0482Z" fill="currentColor" class=""/> <path d="M30.8716 0.389964V18.6092C30.8716 18.6899 30.9245 18.7428 31.0052 18.7428H36.4097C36.4904 18.7428 36.5433 18.6899 36.5433 18.6092V0.389964C36.5433 0.309238 36.4904 0.256348 36.4097 0.256348H31.0052C30.9245 0.256348 30.8716 0.309238 30.8716 0.389964Z" fill="currentColor"/> <path d="M0.316563 18.5827C0.262281 18.6899 0.290118 18.7428 0.39729 18.7428H6.76496C6.81785 18.7428 6.89858 18.6899 6.92502 18.6356L8.69127 15.8004C8.72885 15.7392 8.8221 15.6933 8.87917 15.6933H21.9959C22.0766 15.6933 22.1295 15.7461 22.1295 15.8269V18.6092C22.1295 18.6899 22.1824 18.7428 22.2631 18.7428H27.6412C27.7219 18.7428 27.7748 18.6899 27.7748 18.6092V0.389964C27.7748 0.309238 27.7219 0.256348 27.6412 0.256348H17.5476C14.498 0.256348 11.3135 2.53062 9.84232 4.67127L0.316563 18.5827ZM18.8837 4.77705H21.9945C22.0752 4.77705 22.1281 4.82994 22.1281 4.91066V11.0375C22.1281 11.1183 22.0752 11.1712 21.9945 11.1712H12.8153C12.2794 11.1712 11.9468 11.1906 11.5251 11.3577L11.4513 11.2282C12.2071 10.5977 12.381 10.2331 12.5689 9.96583L14.6289 6.9692C15.432 5.81953 16.796 4.77565 18.8823 4.77565" fill="currentColor"/></svg>