<svg version="1.1" id="Layer_1" xmlns:x="ns_extend;" xmlns:i="ns_ai;" xmlns:graph="ns_graphs;" xmlns="http://www.w3.org/2000/svg" xmlns:xlink="http://www.w3.org/1999/xlink" x="0px" y="0px" viewBox="0 0 607 62.2" style="enable-background:new 0 0 607 62.2;" xml:space="preserve">
 <metadata>
  <sfw xmlns="ns_sfw;">
   <slices>
   </slices>
   <sliceSourceBounds bottomLeftOrigin="true" height="62.2" width="607" x="-103.4" y="-230.8">
   </sliceSourceBounds>
  </sfw>
 </metadata>
 <g>
  <path d="M69.7,61.2V28.6L53.4,61.2H35.8L19.5,28.6v32.6H0V0.9h26.6l18.1,36.2L62.6,0.9h26.6v60.3H69.7z">
  </path>
  <path d="M156.8,0.9l-19.4,23.9L118.1,0.9H94.9l32.3,40.4v19.9h20.7V41.3l32.3-40.4C180.1,0.9,156.8,0.9,156.8,0.9z">
  </path>
  <path d="M256.2,0.9h-72v16.1h25.5v44.2h21V16.9h25.5V0.9L256.2,0.9z">
  </path>
  <path d="M315,0.9V23h-30.1V0.9h-21v60.3h21V39.1H315v22.1h21V0.9H315z">
  </path>
  <path d="M369.3,0.9h-21.1v60.3h21.1V0.9z">
  </path>
  <path d="M454.4,46c-4.8,10.4-16,16.2-37.1,16.2c-16.9,0-27.9-4.2-33.8-11.4c-4.1-4.8-6.1-11.4-6.1-19.8c0-7.7,1.9-14.1,5.8-18.7
		C389.2,4.6,400.3,0,417.7,0c23.7,0,33.5,8.5,37.1,17.4c1,2.8,1.6,5.7,1.7,8.6h-21.4c-0.1-1.6-0.6-3.1-1.5-4.5
		c-2.2-3.2-7.1-5.6-16.1-5.6c-8.1,0-14.1,2.1-16.8,6.3c-1.4,2.1-1.9,5.2-1.9,9c0,4.1,0.7,7,2.2,9.1c3,4.5,9.7,6.1,16.6,6.1
		c8.1,0,13.8-1.6,16.4-5.3c0.9-1.3,1.4-2.9,1.4-4.5h21.4C456.4,38.8,455.9,43,454.4,46L454.4,46z">
  </path>
  <path d="M512.8,0.9h-26.5l-30.2,60.3h22.2l19.1-39.3l2.2-5.5l2.2,5.5l19.1,39.3h22.2L512.8,0.9z">
  </path>
  <path d="M570.4,45.1V0.9h-21v60.3H607V45.1H570.4z">
  </path>
 </g>
</svg>