<svg version="1.1" id="Layer_1" xmlns:x="ns_extend;" xmlns:i="ns_ai;" xmlns:graph="ns_graphs;" xmlns="http://www.w3.org/2000/svg" xmlns:xlink="http://www.w3.org/1999/xlink" x="0px" y="0px" viewBox="0 0 67.4 61.8" style="enable-background:new 0 0 67.4 61.8;" xml:space="preserve">
 <style type="text/css">
  .st0{clip-path:url(#SVGID_2_);}
	.st1{display:none;}
	.st2{display:inline;}
	.st3{fill:#F9F8F5;}
	.st4{fill:#1E1515;}
	.st5{fill:#FFFFFF;}
 </style>
 <metadata>
  <sfw xmlns="ns_sfw;">
   <slices>
   </slices>
   <sliceSourceBounds bottomLeftOrigin="true" height="1080" width="1920" x="-1114.8" y="-725.8">
   </sliceSourceBounds>
  </sfw>
 </metadata>
 <g>
  <g>
   <g>
    <defs>
     <rect id="SVGID_1_" x="-1146.6" y="-444.3" width="1920" height="1080">
     </rect>
    </defs>
    <clipPath id="SVGID_2_">
     <use href="#SVGID_1_" style="overflow:visible;">
     </use>
    </clipPath>
    <g transform="matrix(1,0,0,1,-848,-404)" class="st0">
     <g transform="matrix(0.9567162394523621,0,0,0.9567162394523621,933.1823120117188,493.7516174316406)" class="st1">
      <g transform="matrix(1,0,0,1,50,58.5)" class="st2">
       <path class="st3" d="M-262.1-44.2v-34.9c0-16.7-18.5-26.9-32.9-18.2l-51.1,31.8c-8.9,5.5-16,18.1-16,28.6v32
							c0,16.7,18.5,26.9,32.9,18.2l52.7-32C-267.4-24.3-262.1-33.8-262.1-44.2z">
       </path>
      </g>
     </g>
     <g transform="matrix(0.9567162394523621,0,0,0.9567162394523621,941.8607788085938,498.1380615234375)" class="st1">
      <g transform="matrix(1,0,0,1,52,61)" class="st2">
       <path class="st4" d="M-260.1-44.3v-36.4c0-17.4-19.3-28.1-34.2-19l-54.8,33.3c-9.3,5.7-14.9,15.6-14.9,26.5v36.5
							c0,17.4,19.3,28.1,34.2,19l54.8-33.3C-265.6-23.6-260.1-33.5-260.1-44.3z">
       </path>
      </g>
     </g>
    </g>
   </g>
  </g>
 </g>
 <g>
  <g>
   <path class="st5" d="M28.8,25.3l14.3-8.9V9.2c0-7.2-8-11.6-14.2-7.9L6.2,15.2C2.3,17.6,0,21.7,0,26.2v15.2c0,7.2,8,11.6,14.2,7.9
			l8-4.8v-7.2C22.2,32.8,25.1,27.6,28.8,25.3z">
   </path>
   <g transform="matrix(0.9988735914230347,0,0,0.9988735914230347,941.251953125,498.0608825683594)">
    <g transform="matrix(1,0,0,1,50,58.5)">
     <path class="st5" d="M-924.9-520.4v-14.5c0-6.9-7.7-11.2-13.7-7.6l-21.9,13.3c-3.7,2.3-6,6.2-6,10.6v14.6
					c0,6.9,7.7,11.2,13.7,7.6l21.9-13.3C-927.1-512.2-924.9-516.1-924.9-520.4z">
     </path>
    </g>
   </g>
  </g>
 </g>
</svg>