<svg version="1.1" id="Layer_1" xmlns:x="ns_extend;" xmlns:i="ns_ai;" xmlns:graph="ns_graphs;" xmlns="http://www.w3.org/2000/svg" xmlns:xlink="http://www.w3.org/1999/xlink" x="0px" y="0px" viewBox="0 0 339.4 64" style="enable-background:new 0 0 339.4 64;" xml:space="preserve">
 <style type="text/css">
  .st0{clip-path:url(#SVGID_2_);}
	.st1{display:none;}
	.st2{display:inline;}
	.st3{fill:#F9F8F5;}
	.st4{fill:#1E1515;}
	.st5{fill:#FFFFFF;}
 </style>
 <metadata>
  <sfw xmlns="ns_sfw;">
   <slices>
   </slices>
   <sliceSourceBounds bottomLeftOrigin="true" height="1080" width="2333.9" x="-1994.6" y="-167.7">
   </sliceSourceBounds>
  </sfw>
 </metadata>
 <g>
  <g>
   <g>
    <g>
     <defs>
      <rect id="SVGID_1_" x="-1994.6" y="-848.3" width="1920" height="1080">
      </rect>
     </defs>
     <clipPath id="SVGID_2_">
      <use href="#SVGID_1_" style="overflow:visible;">
      </use>
     </clipPath>
     <g transform="matrix(1,0,0,1,-848,-404)" class="st0">
      <g transform="matrix(0.9567162394523621,0,0,0.9567162394523621,933.1823120117188,493.7516174316406)" class="st1">
       <g transform="matrix(1,0,0,1,50,58.5)" class="st2">
        <path class="st3" d="M-262.1-44.2v-34.9c0-16.7-18.5-26.9-32.9-18.2l-51.1,31.8c-8.9,5.5-16,18.1-16,28.6v32
								c0,16.7,18.5,26.9,32.9,18.2l52.7-32C-267.4-24.3-262.1-33.8-262.1-44.2z">
        </path>
       </g>
      </g>
      <g transform="matrix(0.9567162394523621,0,0,0.9567162394523621,941.8607788085938,498.1380615234375)" class="st1">
       <g transform="matrix(1,0,0,1,52,61)" class="st2">
        <path class="st4" d="M-260.1-44.3v-36.4c0-17.4-19.3-28.1-34.2-19l-54.8,33.3c-9.3,5.7-14.9,15.6-14.9,26.5v36.5
								c0,17.4,19.3,28.1,34.2,19l54.8-33.3C-265.6-23.6-260.1-33.5-260.1-44.3z">
        </path>
       </g>
      </g>
     </g>
    </g>
   </g>
  </g>
 </g>
 <g>
  <g>
   <path class="st5" d="M28.8,25.3l14.3-8.9V9.2c0-7.2-8-11.6-14.2-7.9L6.2,15.2C2.3,17.6,0,21.7,0,26.2v15.2c0,7.2,8,11.6,14.2,7.9
			l8-4.8v-7.2C22.2,32.8,25.1,27.6,28.8,25.3z">
   </path>
   <g transform="matrix(0.9988735914230347,0,0,0.9988735914230347,941.251953125,498.0608825683594)">
    <g transform="matrix(1,0,0,1,50,58.5)">
     <path class="st5" d="M-924.9-520.4v-14.5c0-6.9-7.7-11.2-13.7-7.6l-21.9,13.3c-3.7,2.3-6,6.2-6,10.6v14.6
					c0,6.9,7.7,11.2,13.7,7.6l21.9-13.3C-927.1-512.2-924.9-516.1-924.9-520.4z">
     </path>
    </g>
   </g>
  </g>
  <g>
   <path class="st5" d="M93.6,53.7h9V21.8h11.6v-7.6H82.1v7.6h11.6L93.6,53.7L93.6,53.7z M126.3,54.2c8.1,0,13.7-4.5,14.9-10.7h-9
			c-0.6,2.1-2.7,3.5-5.9,3.5c-4,0-6.9-2.2-7.6-6.8h22.5C142.7,30,136.4,22,126,22c-9.2,0-15.8,6.7-15.8,16.1S116.3,54.2,126.3,54.2z
			 M119.1,33.9c1-3.5,3.3-5.2,6.9-5.2c3.6,0,6,2,6.2,5.2H119.1z M154.8,54.2c3.9,0,7.3-1.5,8.8-4v3.5h8.7v-19
			c0-8.3-6-12.6-14.3-12.6c-7.7,0-13.5,4.9-14.2,11.5h8.4c0.3-3.2,2.7-4.9,5.8-4.9c3.4,0,5.6,1.8,5.6,5V34l-6.4,0.7
			c-9.3,1-13.4,4.5-13.4,10.3C143.8,50.6,148.1,54.2,154.8,54.2z M152.6,44.6c0-1.9,1.5-3.3,4.8-3.7l6.2-0.7c-0.2,4.5-2.9,7.4-7,7.4
			C154.2,47.7,152.6,46.4,152.6,44.6z M214.8,22c-3.8,0-7.8,1.5-10.7,5.1c-1.6-3.1-5.1-5.1-9.5-5.1c-4.2,0-7.7,2-9,4.1v-3.6h-8.7
			v31.3h8.7V39.9c0-6.7,2.4-10.2,6.4-10.2c3.2,0,5,2.3,5,5.9v18.2h8.7V39.9c0-6.6,2.4-10.2,6.4-10.2c3.2,0,4.9,2.3,4.9,5.9v18.2h8.7
			V33.3C225.7,26.5,221.3,22,214.8,22z M237.7,53.7h8.1l6.2-18.3l6.2,18.3h8.1l11.4-31.3h-9.2l-6.2,19.4l-6.2-19.4H248l-6,19.4
			l-6.2-19.4h-9.4L237.7,53.7z M288.4,54.2c3.9,0,7.3-1.5,8.8-4v3.5h8.7v-19c0-8.3-6-12.6-14.3-12.6c-7.7,0-13.5,4.9-14.2,11.5h8.4
			c0.3-3.2,2.7-4.9,5.8-4.9c3.4,0,5.6,1.8,5.6,5V34l-6.4,0.7c-9.3,1-13.4,4.5-13.4,10.3C277.5,50.6,281.7,54.2,288.4,54.2z
			 M286.2,44.6c0-1.9,1.5-3.3,4.8-3.7l6.2-0.7c-0.2,4.5-2.9,7.4-7,7.4C287.8,47.7,286.2,46.4,286.2,44.6z M313.6,64h9.1l16.6-41.5
			h-9.2l-7.3,19.4l-7.4-19.4H306l12.2,30.4L313.6,64z">
   </path>
  </g>
 </g>
</svg>